<svg xmlns="http://www.w3.org/2000/svg" width="679.5" height="677.6">
  <path fill="#fff" d="M672.9 334.7c0 183-150.3 331.4-335.7 331.4S1.5 517.7 1.5 334.7 151.7 3.3 337.2 3.3s335.7 148.4 335.7 331.4z"/>
  <path fill="#666" stroke="#000" stroke-width="4.5" d="M249.5 67.9C243 69 236.2 73 237.1 80.5l-8.4 18.1c-4 7-8.4 14.2-8.6 22.6-1.1 9.7-8.5 17.9-7.5 28v33c-.4.7-.6 1.3-.8 2-1.8 8.8-1.9 18-5.2 26.6a25.2 25.2 0 0 0-5.3 14.4c-1.2 6.9-1.8 13.7-2.5 20.7-1.6 7.7-4.4 15.1-5.8 22.9-3 6.8.6 15.8-4.8 21.7-2.5 8.6-10 15.2-10.1 24.5.1 3.2 2.2 5 4.8 6.7-.6 1.7-1.1 3.5-1.8 4.8-2.6 6.4-1.7 13.5-2 20.2a50 50 0 0 0 9 19.8c10.2 8.4 12.1 21.9 14.6 34a65 65 0 0 0 5.4 18.7c2.7 6.3 6 12.1 8.6 18 8 11 25.5 5.4 32.9 17 7.3 8.5 17.8 16.1 29.6 14.5 24 5.1 48.6 7 72.6 11.8 20.8.5 41.5.1 62.2.3 2.6 4.6 17.1 4 27.6 1.9l4.8 1.3c1.7 1 3.7 1 6.4-.8a41.9 41.9 0 0 1 24.4-11.5c7.9-2.3 16.3-3.4 23.6-6.4 2-9.2-1.4-18.7-3.2-27.8-4.2-8.7-4.4-18.5-5.9-28-.8-9.1-3.4-18-4.6-27 0-5.8 2-16 .2-21v-.4c.2-2.4 0-4.8-.3-7.2l-.1-5.3-1.1-4.1V343a62 62 0 0 1-.7-12.2c-.4-3.8-.8-7.7-1.8-11.4L483 303c-.7-12.3 3.7-29.5-10.2-35.6-13-9.8-6.5-29.3-8-43.4 2.4-9.6-.2-18.3-5.7-25.2a7.5 7.5 0 0 0-2.6-3.3c-2.8-7-5.6-8.5-17.4-11.4l-1.8-1.3c-.4-7.1-6.6-12-11.6-17.4-5.5-5.6-8.6-10-13.5-15.1-1.7-7.4-7.3-12.8-11.5-18.8-7.2-7.4-9.9-19-19.8-23.7-7.3-2.6-12.7-9.2-20.5-10.3-4.6.9-11.7 2.6-14.8-.7l-6-.7a206 206 0 0 0-17.8-7.1c-12-8.3-29-6-39.2-16.6-10.9-1.2-22-4.3-32.9-4.3l-.2-.2z"/>
  <path fill="#666" d="M216.3 180.3c1.7 7.8 5.7 15.2 4.2 23.4-.2 8.7 9 21 5 29.2-2.3 7-5.8 12.8-5 20.1-1 7.3-4.8 12.1-.8 18.3 4 7.5 5.3 16.1 6.6 24.4 1 8.5 9 17 9 25.4.5 7.2 0 32.4-9.2 35.7-6.6 3-18.6-11.4-22.1-3.8-2.2 4.8-6 3.4-5.7-1.7-.2-7.3 3-16.2-3-22.1-3.5-6.6-14.8-6.8-15.2-14.4.2-9.2 7.6-15.7 10-24.2 5.4-5.8 1.8-14.7 4.7-21.5 1.5-7.6 4.3-15 5.8-22.6.7-6.9 1.3-13.7 2.5-20.5a25 25 0 0 1 5.3-14.1c3.2-8.5 3.2-17.6 5-26.4.6-1.9 1.6-3.7 3-5.2z"/>
  <path fill="#666" d="M191.2 315.8c-5.8-.6-6.1 6.6-8.1 10.4-2.5 6.3-1.6 13.3-1.9 20-.4 6.8 7.3 6.2 11.2 9.4 6 3.8 8.3 10.8 10.9 17 1.2 5.7 1.1 11.7 3.2 17.2 1.5 5.2-.1 10.6 1 16 1.2 4.6-.4 11.3 4.6 14 6 2.4 6.6-5.9 9.9-8.9 3.4-4.2 9-6.7 14.5-5.8 5.3-.7 5.3-8.2 4.3-12-2.9-3.6-7.5-5.3-10.5-8.9-3.2-4.3-5.5-9.8-10.6-12-5-1.6-6.2-7-9-10.7-2.7-2.6-8.3-2.8-7-8 .2-5 .8-10-.2-14.9-2.9-5-1-12.2-5.9-16.2-1.3-2.9-3.8-5-6.4-6.6z"/>
  <path fill="#4d4d4d" d="M254.8 388.5c-5-3.2 1.7-9.5.6-14.8a52.5 52.5 0 0 0-12-23.3c-3.6-2.8-11.4.5-16-.8-9.8-12.5-5-6.8-12.8-6.8-2.2 3.5-15 6.2-15.4 8.7 0 3.7 2 4.5 3 8 .7 4.5 4.9 8.4 6.7 12.4 1.7 4.3 4.5 7.9 7.3 11.4 1.6 2.1 4.2 3 6.7 3.7 3.8 1 6.1 4 9 6.2 3.2 1.4 7 2.2 8.4 5.9 3.3 6.4 10.6 1.2 11.6-1.1 1.5-2.5 4.9-19.2 7.8-19.7.5-.2-5.5 10.4-5 10.2z"/>
  <path fill="#4d4d4d" d="M369.2 457.3c-5.3-.3-6.5-17.7-12.4-17.8a347 347 0 0 1-14.4-10.2c-3.1-3-14.7-3.2-18.6-6a97.6 97.6 0 0 1-15.4-10.4c-4.2-2.5-9.7 2-13.8-.6-4.7-1.9-6.9-4.4-11.4-7-5.6-2.5-18.8-33.7-24.7-35.6-5.2-1.3-3.3 20.9-9 23.6-4.5 3.8-9.3 9.6-8.2 14.7 2.6 4 9.8 10.6 11.6 15a43.2 43.2 0 0 0 8.1 16.3c3.4 3.2 6.5 7 10.4 9.6 4.2 3.7 5.4 10.3 10 13.5 5.5 1 14-1.4 18.6 2 5 2 10 3.7 15.4 3.3 7.3-.1 14.6.5 21.8-.8 5.7-1 12.4 1.6 17.1-3 7 3.8 20.4.5 15-6.6z"/>
  <path fill="#999" d="M431.6 472.3c9.5-2.7 10.2 15.2 20 8.7 6.7-6.5 15-10.1 24.2-11.4 7.8-2.2 16-3.2 23.3-6.3 2-9-1.4-18.4-3.2-27.4-4.1-8.6-4.4-18.3-5.8-27.6-.8-9-3.4-17.9-4.6-26.8.2-8.4 4-26.4-5.3-23.3-5.2 6.7-9 11.4-18.6 13-8.5 3-20.6 3-29.5 5.2-14.9 5.1-26.8 16.7-42.5 19-8.5 2.8-17 6-26 7.1-9.5 2.7-18.8 5.7-27.9 9.4-7 2.3-14.2 3.4-21 6.4-9.5.6 3.3 6.8 5.8 8.5 7 7.5 17.8 8.8 25.6 15.2 9 3.8 14.9 11.9 15.4 21.6-.2 6.8 7.2 15.5 11.7 6.7 3.2-6.2 14-4.2 18.7-10.2 9.5-1.1 19-1.3 28.5-2 10.1-.9 12.6 5.2 11.2 14.2z"/>
  <path fill="#1a1a1a" d="M192.2 344.8c-17.1-9.5-10.9 9.3-2 21 10 8.2 11.8 21.5 14.3 33.5 1.8 14.6 8.8 25.2 13.8 36.4 7.9 10.8 25.2 5.2 32.5 16.7 7.2 8.4 17.6 15.9 29.3 14.3 23.7 5 48 6.9 71.8 11.6 20.5.6 41 .2 61.4.4 6 10.4 75.3-6.6 11.5-5.7-11.5-6.6-25.4-5-38-7.1-12.3.6-24.3-1.5-36.3-2.5-14.5-.1-29 .4-43.5-.4-10-5.2-24.2.5-31.8-9.7-2.3-11.5-6.6-27-17.6-34-13.6-12.3-17.4-26.3-33.5-36-11.4-9-18.4-24.7-27.4-35.5a15.2 15.2 0 0 0-4.5-3z"/>
  <path fill="#333" d="M369.2 473.2c5.4-2 8-7.7 13.1-10.2a20.6 20.6 0 0 1 16.2-4.7c5.5 0 11.1-1.5 16.7-1.2 3.5 1.6 9.5-2.7 13.1-2.5 2.8 1.3 15.8 9.7 15.5 12.3 7.2 2.5 13.9 4.8 13.9 7.6s-5 7.4-7.3 8.4c-.2 2.5-21.1-6.5-23-7.2-5-2-10.4-1.4-15.5-1.3-8 .3-16-.3-24 0a29.2 29.2 0 0 1-17-.1l-1.7-1z"/>
  <path fill="#b3b3b3" d="M250 70.8c-8 7.2-12.5 2.3-9.4 12.8-2.5 18.3-15.8 33-18 51.3.4 17-5.3 33.4-6.3 50.1 5.2 15.4 11.7 31.6 2.7 47a185.4 185.4 0 0 0-1.1 45.5c10.5 10.2 7.6 25.4 10.7 38.6 8 13-5.8 26.9 2 38.1 17.2 4.2 14.5 28.1 26 35.7 5 15.8 18 11.8 33.2 26.1 14.9 8.8 31.8 3.9 48.3 4.5 14.1-.5 24-15 39.6-13.7 18.7 2.4 29-12.6 44.6-19 12.8-9.8 28.5-11.1 43.8-13.5 10.9-4.5 20.8-5.3 19.2-26.3-4.3-14.4-3.2-30-3.8-45-.7-12.1 3.7-29.2-10-35.2-13-9.7-6.5-29-8-42.9 3.8-15.7-5.7-29-19.3-35.8-19.5-9.7-26.8-31.2-40.7-46.3-8.8-12.7-15.9-30.5-32.6-34.2-17.4-2-32.3-11.8-48.7-17.2-11.8-8.2-28.7-5.8-38.7-16.4-11.1-1.2-22.5-4.3-33.5-4.2z"/>
  <path fill="#e6e6e6" d="M345.7 99.2c-6.8-.6-12.8-3-12.4 6 0 7.2 11.4 5.7 11.8 13.4 5.8 4.4 10 11.5 17 13.6 9.7-.6 8 9.7 9.4 16 2.3 7.5 8.2 13.2 12.2 19.8 5.3 8.4 14.4 13.5 19 22.3 3.7 6.7 5 14.6 10 20.6 1.8 5.9 6 11.9 12.8 9.8 6.7 1 18.2 6.4 21.4-2.2 9.7-1.7 15.7-16.5 8.4-21.8-2.8-7.2-5.8-8.5-18.9-11.7 0-7.5-6.4-12.5-11.5-18-5.4-5.5-8.6-9.8-13.3-15-1.8-7.3-7.2-12.6-11.5-18.5-7-7.4-9.7-18.9-19.5-23.5-7.2-2.5-12.6-9-20.3-10.2-4.5 1-11.5 2.7-14.6-.6z"/>
  <path fill="gray" d="M250.8 70.6c-6.4 1.1-13.2 5.2-12.3 12.4l-8.3 18c-4 6.9-8.3 14-8.6 22.3-1 9.5-8.3 17.7-7.3 27.7l-.2 48.7c-3 6-1.2 13-3 19.2-.2 5.7-.9 12.7.3 17.6 10.4 1 10.1-9.3 11.6-15.5 3.6-6 1.5-14 3.5-20.5a49.2 49.2 0 0 1 6-18.9c2.8-8 6.8-15.8 12.4-22.4 4-5.6 5.3-13 2.9-19.5-1.8-6.3-4.1-12.6-3.3-19.2v-24c3.8-4.7 8.6-8.3 14.2-10.4 1.8-.8 1.1-4.4 1.6-5.5.4-1-2-3-5.4-2.9-4.8-.1-9.4-.2-3.4-6.4"/>
  <path fill="#999" d="M479.4 308c-4.6-1-8.6 3-13.2 2h-26.6c-3.4-2.5-8.4-1-11.5-4.2-4.5-2.4-8.4-5.5-13.2-7.2-3.5-2.3-7.9-2.1-11.6-4-3 .6 2 5 1.9 7a73 73 0 0 0 4 10.7 23 23 0 0 0 5.6 10.4c3.1 4 5.5 8.7 6.5 13.6 3 .9 3.2 5.3 5.5 7.7a14 14 0 0 1 3 10.2c.6 5.7 7.2 4 11 5 5.4 1 10.9-.6 16.2 1 3.6.6 7.3.2 11 .9 3 1 6 .3 9 .5 2.8-.2 8.6 3 8.7-1.2.5-6-1.3-11.8-1.5-17.8-.6-4-.7-8-.6-12a58.4 58.4 0 0 0-3-15.2c-.6-2.4-.5-5-1.2-7.4z"/>
  <path d="M308.5 676.9a340.9 340.9 0 0 1-304-280.7 377.8 377.8 0 0 1-3-92A345 345 0 0 1 62.3 143 341.7 341.7 0 0 1 310 1a450 450 0 0 1 60 0 342 342 0 0 1 248.5 143 347 347 0 0 1 54.4 125.1 270 270 0 0 1 6.6 69.9c0 32.2-1 42.3-6.6 69.8a343.7 343.7 0 0 1-56 127.4A341.4 341.4 0 0 1 384 675.5a578.1 578.1 0 0 1-75.5 1.4zm56.2-13a333.9 333.9 0 0 0 180.3-71 423 423 0 0 0 47.4-46.3A324.4 324.4 0 0 0 545 84c-22-17.5-51.4-35-77-45.8A331.9 331.9 0 0 0 133 84a423 423 0 0 0-47.3 46.3 324.4 324.4 0 0 0 0 416.3A423 423 0 0 0 133 593c22 17.5 51.4 35 77 45.8a336 336 0 0 0 154.7 25z"/>
  <path d="M287.9 536.8v84h16v-84zm87.7 0v84h16v-84z" aria-label="I"/>
</svg>
