<?xml version="1.0" encoding="UTF-8" standalone="no"?>
<svg id="svg5136" xmlns:rdf="http://www.w3.org/1999/02/22-rdf-syntax-ns#" xmlns="http://www.w3.org/2000/svg" height="136.97mm" width="322.19mm" version="1.1" xmlns:cc="http://creativecommons.org/ns#" xmlns:dc="http://purl.org/dc/elements/1.1/" viewBox="0 0 1141.6025 485.33937">
<g id="layer1" transform="translate(1974.2 -8.8383)">
<g id="g5892" transform="matrix(-.11145 1.5938 -1.5938 -.11145 -772.55 2714.1)">
<path id="path5860" d="m-1458.9 161.36c-5.9 0.69634-7.0911 7.5591-7.9091 12.338-14.448 63.274-27.285 127.07-39.022 190.95-0.5249-0.1991-1.9601-5.39-2.8237-7.4468-21.541-60.769-43.071-121.57-66.329-181.7-1.8248-3.7238-7.8094-5.696-10.359-1.5996-4.4094 5.6726-1.0957 13.045-0.5898 19.384 12.332 86.966 27.639 173.58 47.885 259.06 3.0266 9.1352 8.2451 17.402 14.303 24.822-6.0424 2.3951-5.7216 10.038-6.9791 15.339-3.7079 19.424-10.084 38.418-11.761 58.174 3.3658 6.3887 11.552 5.9259 17.648 7.0566 5.1568 1.5289 12.286 2.821 16.004-2.1914 2.8459-8.9473 2.5764-18.518 5.0713-27.563 1.8258-8.154 4.3607-16.446 7.167-24.099 10.859 13.376 12.196 31.083 18.332 46.621 1.1681 3.0064 2.4665 7.1152 6.3946 7.1426 8.2657 0.62249 15.694-3.9485 23.648-5.3125 4.8713-2.3387 6.6084-9.1457 3.4604-13.532-9.28-26.27-18.575-52.659-27.734-78.888 4.7569 1.695 9.1985-2.8485 9.5937-7.3984 1.0736-6.4745 0.9358-13.082 1.934-19.574 7.6713-83.595 8.2329-167.63 8.5269-251.51-0.1645-5.6891 0.2506-11.577-0.7929-17.131-1.2067-1.8744-3.4335-3.0613-5.668-2.9531z" fill="#999"/>
<path id="path48" d="m-1457.2 139.56c-0.5588 0.0295-1.1174 0.14763-1.6582 0.35742-1.293 0.501-2.3684 1.4773-3.1934 2.9023-1.776 3.066-7.0788 12.216-45.176 208.17-65.971-188.45-72.539-196.74-74.738-199.52-2.6947-3.403-5.8198-2.5345-6.7128-2.1875-1.024 0.397-2.4192 1.2971-3.2422 3.3281-0.857 2.11-2.6382 6.5019 3.9218 53.211 3.659 26.059 9.3635 61.177 16.066 98.887 11.798 66.385 27.241 143.82 33.264 156.95 2.2 4.799 4.7414 9.1429 7.7364 13.213-7.5343 39.566-13.978 64.39-16.359 73.131l9.6601 1.5098c0 0.0128-0.014 0.0381-0.014 0.0508 2.6273-9.8036 8.4881-33.031 15.148-67.215l20.293 19.223c-6.8599 13.118-10.356 39.957-11.604 51.66l9.623 1.5039c1.242-11.674 4.1302-32.018 8.5078-43.941 5.9989 11.521 11.628 32.418 14.406 44.369l9.3672-2.5977c0 0.009 0.01 0.0222 0.01 0.0312-2.986-12.848-11.138-44.583-20.934-54.756-9.2769-8.7898-19.303-17.933-29.189-27.299-3.0757-3.9427-5.6347-8.1749-7.8184-12.936-4.65-10.142-18.507-75.892-32.234-152.94-6.635-37.253-12.331-72.155-16.035-98.275-2.125-14.987-3.3768-25.54-4.0938-32.961 9.418 23.012 29.463 76.626 71.728 197.74 22.303 61.834 38.503 108.91 61.932 174.92l9.4062-2.6094s-21.313-57.532-26.773-73.301c2.366-4.446 4.2494-9.104 5.7344-14.168 3.948-13.462 8.1984-92.013 10.357-162.65 1.185-38.801 1.733-74.501 1.541-100.52-0.351-47.589-2.9117-49.94-4.9707-51.832-0.964-0.88532-2.1672-1.3815-3.4023-1.4473-0.1855-0.01-0.3724-0.01-0.5586 0zm-1.4531 24.973c0.361 7.446 0.6431 18.065 0.7011 33.197 0.101 26.381-0.5013 61.739-1.6953 99.559-2.47 78.228-6.6989 145.29-9.8379 155.99-0.3652 1.2463-0.7584 2.4627-1.1797 3.6543l-30.156-87.902c24.148-124.8 36.192-180.47 42.168-204.5z" fill="#333"/>
<circle id="circle50" cy="455.27" cx="-1504.5" r="17.411" fill="#333"/>
<path id="path5852" d="m-1439.1 543.24-9.4082 2.6094c0.01 0.0194 0.013 0.0353 0.02 0.0547l-23.375 6.457v-0.004c0-0.009-0.01-0.0223-0.01-0.0312l-9.3691 2.5977c0.3927 1.6896 0.7303 3.2064 1.0019 4.4863l1.0723 5.0488 22.869 128.17h0.022c-8.573 7.381-14.266 16.592-18.586 29.008-12.359 35.519 1.5339 83.968 29.713 112.07 33.233 33.15 93.13 18.566 104.56-27.15 7.847-31.398-4.0891-74.664-24.703-99.295l-0.01-0.006c-5.212-6.227-13.111-12.444-22.18-17.438-10.955-23.945-47.971-137.44-47.971-137.44l-2.0351-5.0488c-0.022-0.0549-0.8313-2.1007-1.6133-4.0898zm-108.17 4.5234c-0.5872 2.1554-1.1307 4.1054-1.1465 4.1602l-1.5527 5.3106s-34.362 113.36-44.774 137.54h0.01c-8.953 5.197-16.708 11.591-21.779 17.934-20.053 25.089-31.011 68.615-22.455 99.828 12.458 45.447 72.668 58.674 105.15 24.783 27.538-28.73 40.336-77.48 27.18-112.71-4.6-12.315-10.499-21.397-19.236-28.584h0.019l20.809-131.78 0.4453-5.1875c0.1111-1.29 0.26-2.8389 0.4434-4.5625l-9.623-1.5039c0 0.0159 0 0.0388-0.01 0.0547l-23.832-3.7227c0-0.0127 0.01-0.038 0.014-0.0508zm129.71 156.18c15.368 0.36427 33.535 12.462 39.805 20.779 13.903 18.435 21.953 50.819 16.658 74.32-7.707 34.219-48.099 45.132-70.51 20.322-18.999-21.037-28.368-57.297-20.033-83.885 4.335-13.835 10.704-22.37 22.516-28.951 3.0442-1.6956 6.4716-2.4866 10.086-2.584 0.4894-0.0132 0.9828-0.0137 1.4785-0.002zm-143.87 7.7285c4.3324-0.0743 8.4258 0.66211 11.98 2.4394 12.174 6.089 16.957 14.181 21.664 27.48 9.046 25.557 0.2464 60.915-18.684 81.756-22.327 24.581-63.721 14.987-72.285-17.977-5.883-22.641 1.6495-54.21 15.438-72.408 7.8961-10.424 26.414-21.026 41.887-21.291z" fill="#6f2323"/>
</g>
</g>
</svg>
